<svg width="30" height="30" viewBox="0 0 30 30" fill="none" xmlns="http://www.w3.org/2000/svg">
<path d="M6.3 0C4.62914 0 3.02671 0.663748 1.84523 1.84523C0.663748 3.02671 0 4.62914 0 6.3V23.1C0 24.7709 0.663748 26.3733 1.84523 27.5548C3.02671 28.7363 4.62914 29.4 6.3 29.4H23.1C24.7709 29.4 26.3733 28.7363 27.5548 27.5548C28.7363 26.3733 29.4 24.7709 29.4 23.1V6.3C29.4 4.62914 28.7363 3.02671 27.5548 1.84523C26.3733 0.663748 24.7709 0 23.1 0H6.3ZM2.1 6.3C2.1 5.18609 2.5425 4.1178 3.33015 3.33015C4.1178 2.5425 5.18609 2.1 6.3 2.1H23.1C24.2139 2.1 25.2822 2.5425 26.0698 3.33015C26.8575 4.1178 27.3 5.18609 27.3 6.3V23.1C27.3 24.2139 26.8575 25.2822 26.0698 26.0698C25.2822 26.8575 24.2139 27.3 23.1 27.3H6.3C5.18609 27.3 4.1178 26.8575 3.33015 26.0698C2.5425 25.2822 2.1 24.2139 2.1 23.1V6.3ZM21.7434 11.2434C21.9406 11.0462 22.0513 10.7788 22.0513 10.5C22.0513 10.2212 21.9406 9.95376 21.7434 9.7566C21.5462 9.55944 21.2788 9.44867 21 9.44867C20.7212 9.44867 20.4538 9.55944 20.2566 9.7566L12.6 17.4153L9.1434 13.9566C9.04578 13.859 8.92988 13.7815 8.80233 13.7287C8.67477 13.6759 8.53806 13.6487 8.4 13.6487C8.26194 13.6487 8.12523 13.6759 7.99767 13.7287C7.87012 13.7815 7.75422 13.859 7.6566 13.9566C7.55897 14.0542 7.48153 14.1701 7.4287 14.2977C7.37587 14.4252 7.34867 14.5619 7.34867 14.7C7.34867 14.8381 7.37587 14.9748 7.4287 15.1023C7.48153 15.2299 7.55897 15.3458 7.6566 15.4434L11.8566 19.6434C11.9541 19.7412 12.07 19.8188 12.1976 19.8717C12.3251 19.9246 12.4619 19.9519 12.6 19.9519C12.7381 19.9519 12.8749 19.9246 13.0024 19.8717C13.13 19.8188 13.2459 19.7412 13.3434 19.6434L21.7434 11.2434Z" fill="#553A2E"/>
</svg>
